<svg width="466" height="466" viewBox="0 0 466 466" fill="none" xmlns="http://www.w3.org/2000/svg">
<path d="M453.117 58.1083L417.208 14.7083C410.233 5.925 399.642 0.5 387.5 0.5H77.5C65.3583 0.5 54.7667 5.925 47.5333 14.7083L11.8833 58.1083C4.39167 66.8917 0 78.5167 0 90.9167V413.833C0 442.25 23.25 465.5 51.6667 465.5H413.333C441.75 465.5 465 442.25 465 413.833V90.9167C465 78.5167 460.608 66.8917 453.117 58.1083ZM83.7 52.1667H381.3L402.225 77.225H63.0333L83.7 52.1667ZM51.6667 413.833V129.667H413.333V413.833H51.6667Z" fill="black"/>
<path d="M208.75 223V292.75L263.388 326.463L272.688 312.513L226.188 284.613V223H208.75Z" fill="black"/>
<path d="M300.82 269.5C301.401 273.336 301.75 277.173 301.75 281.125C301.75 326.463 265.712 362.5 220.375 362.5C175.037 362.5 139 326.463 139 281.125C139 235.788 175.037 199.75 220.375 199.75C228.512 199.75 236.301 200.913 243.625 203.121V179.174C236.185 177.43 228.396 176.5 220.375 176.5C162.25 176.5 115.75 223 115.75 281.125C115.75 339.25 162.25 385.75 220.375 385.75C278.5 385.75 325 339.25 325 281.125C325 277.173 324.767 273.336 324.302 269.5H300.82Z" fill="black"/>
<path d="M325 188.125V153.25H301.75V188.125H266.875V211.375H301.75V246.25H325V211.375H359.875V188.125H325Z" fill="black"/>
</svg>
