<svg width="1734" height="466" viewBox="0 0 1734 466" fill="none" xmlns="http://www.w3.org/2000/svg">
<path d="M706.812 148.016H636.641V338H619.344V148.016H549.312V133.25H706.812V148.016ZM769.306 338H752.431V185.844H769.306V338ZM749.478 141.828C749.478 138.641 750.509 135.969 752.572 133.812C754.634 131.562 757.447 130.438 761.009 130.438C764.572 130.438 767.384 131.562 769.447 133.812C771.603 135.969 772.681 138.641 772.681 141.828C772.681 145.016 771.603 147.688 769.447 149.844C767.384 152 764.572 153.078 761.009 153.078C757.447 153.078 754.634 152 752.572 149.844C750.509 147.688 749.478 145.016 749.478 141.828ZM844.878 185.844L845.441 210.594C851.066 201.406 858.097 194.516 866.534 189.922C874.972 185.328 884.347 183.031 894.659 183.031C918.659 183.031 933.894 192.875 940.362 212.562C945.8 203.094 953.066 195.828 962.159 190.766C971.253 185.609 981.284 183.031 992.253 183.031C1024.88 183.031 1041.52 200.844 1042.17 236.469V338H1025.3V237.734C1025.21 224.141 1022.25 214.062 1016.44 207.5C1010.72 200.938 1001.35 197.656 988.316 197.656C976.222 197.844 966.003 201.781 957.659 209.469C949.316 217.062 944.675 226.344 943.737 237.312V338H926.862V236.469C926.769 223.438 923.675 213.734 917.581 207.359C911.581 200.891 902.3 197.656 889.737 197.656C879.144 197.656 870.05 200.703 862.456 206.797C854.862 212.797 849.237 221.75 845.581 233.656V338H828.706V185.844H844.878ZM1158.25 340.812C1145.31 340.812 1133.59 337.625 1123.09 331.25C1112.68 324.875 1104.58 316.016 1098.76 304.672C1092.95 293.234 1090.04 280.438 1090.04 266.281V260.234C1090.04 245.609 1092.86 232.438 1098.48 220.719C1104.2 209 1112.12 199.812 1122.25 193.156C1132.37 186.406 1143.34 183.031 1155.15 183.031C1173.62 183.031 1188.25 189.359 1199.03 202.016C1209.9 214.578 1215.34 231.781 1215.34 253.625V263.047H1106.78V266.281C1106.78 283.531 1111.7 297.922 1121.54 309.453C1131.48 320.891 1143.95 326.609 1158.95 326.609C1167.95 326.609 1175.87 324.969 1182.72 321.688C1189.65 318.406 1195.93 313.156 1201.56 305.938L1212.11 313.953C1199.73 331.859 1181.78 340.812 1158.25 340.812ZM1155.15 197.375C1142.5 197.375 1131.81 202.016 1123.09 211.297C1114.47 220.578 1109.22 233.047 1107.34 248.703H1198.61V246.875C1198.14 232.25 1193.97 220.344 1186.09 211.156C1178.22 201.969 1167.9 197.375 1155.15 197.375ZM1384.99 263.469C1384.99 287.188 1379.74 306.031 1369.24 320C1358.74 333.875 1344.63 340.812 1326.91 340.812C1305.72 340.812 1289.69 332.938 1278.82 317.188L1278.12 338H1262.37V122H1279.1V207.922C1289.79 191.328 1305.63 183.031 1326.63 183.031C1344.63 183.031 1358.83 189.922 1369.24 203.703C1379.74 217.391 1384.99 236.469 1384.99 260.938V263.469ZM1368.12 260.516C1368.12 240.453 1364.22 224.984 1356.44 214.109C1348.66 203.141 1337.69 197.656 1323.54 197.656C1312.76 197.656 1303.62 200.328 1296.12 205.672C1288.62 210.922 1282.94 218.656 1279.1 228.875V297.5C1287.54 316.625 1302.44 326.188 1323.82 326.188C1337.69 326.188 1348.52 320.703 1356.3 309.734C1364.18 298.766 1368.12 282.359 1368.12 260.516ZM1427.38 259.672C1427.38 245.047 1430.19 231.875 1435.81 220.156C1441.53 208.438 1449.55 199.344 1459.86 192.875C1470.27 186.312 1482.03 183.031 1495.16 183.031C1515.41 183.031 1531.81 190.156 1544.38 204.406C1556.94 218.562 1563.22 237.359 1563.22 260.797V264.312C1563.22 279.031 1560.36 292.297 1554.64 304.109C1549.02 315.828 1541.05 324.875 1530.73 331.25C1520.42 337.625 1508.66 340.812 1495.44 340.812C1475.28 340.812 1458.88 333.734 1446.22 319.578C1433.66 305.328 1427.38 286.484 1427.38 263.047V259.672ZM1444.25 264.312C1444.25 282.5 1448.94 297.453 1458.31 309.172C1467.78 320.797 1480.16 326.609 1495.44 326.609C1510.62 326.609 1522.91 320.797 1532.28 309.172C1541.75 297.453 1546.48 282.031 1546.48 262.906V259.672C1546.48 248.047 1544.33 237.406 1540.02 227.75C1535.7 218.094 1529.66 210.641 1521.88 205.391C1514.09 200.047 1505.19 197.375 1495.16 197.375C1480.16 197.375 1467.92 203.281 1458.45 215.094C1448.98 226.812 1444.25 242.188 1444.25 261.219V264.312ZM1657.21 247.578L1698.28 185.844H1718.24L1666.63 260.516L1720.49 338H1700.67L1657.35 273.594L1614.04 338H1594.21L1647.93 260.516L1596.32 185.844H1616.15L1657.21 247.578Z" fill="black"/>
<path d="M706.812 148.016V161.016C713.992 161.016 719.812 155.195 719.812 148.016H706.812ZM636.641 148.016V135.016C629.461 135.016 623.641 140.836 623.641 148.016H636.641ZM636.641 338V351C643.82 351 649.641 345.18 649.641 338H636.641ZM619.344 338H606.344C606.344 345.18 612.164 351 619.344 351V338ZM619.344 148.016H632.344C632.344 140.836 626.523 135.016 619.344 135.016V148.016ZM549.312 148.016H536.312C536.312 155.195 542.133 161.016 549.312 161.016V148.016ZM549.312 133.25V120.25C542.133 120.25 536.312 126.07 536.312 133.25H549.312ZM706.812 133.25H719.812C719.812 126.07 713.992 120.25 706.812 120.25V133.25ZM706.812 135.016H636.641V161.016H706.812V135.016ZM623.641 148.016V338H649.641V148.016H623.641ZM636.641 325H619.344V351H636.641V325ZM632.344 338V148.016H606.344V338H632.344ZM619.344 135.016H549.312V161.016H619.344V135.016ZM562.312 148.016V133.25H536.312V148.016H562.312ZM549.312 146.25H706.812V120.25H549.312V146.25ZM693.812 133.25V148.016H719.812V133.25H693.812ZM769.306 338V351C776.486 351 782.306 345.18 782.306 338H769.306ZM752.431 338H739.431C739.431 345.18 745.252 351 752.431 351V338ZM752.431 185.844V172.844C745.252 172.844 739.431 178.664 739.431 185.844H752.431ZM769.306 185.844H782.306C782.306 178.664 776.486 172.844 769.306 172.844V185.844ZM752.572 133.812L761.966 142.798C762.03 142.732 762.093 142.665 762.155 142.597L752.572 133.812ZM769.447 133.812L759.864 142.597C759.991 142.736 760.121 142.872 760.254 143.005L769.447 133.812ZM769.447 149.844L760.254 140.651C760.186 140.719 760.119 140.788 760.053 140.858L769.447 149.844ZM769.306 325H752.431V351H769.306V325ZM765.431 338V185.844H739.431V338H765.431ZM752.431 198.844H769.306V172.844H752.431V198.844ZM756.306 185.844V338H782.306V185.844H756.306ZM762.478 141.828C762.478 141.655 762.502 141.798 762.38 142.115C762.322 142.263 762.248 142.409 762.164 142.54C762.08 142.671 762.007 142.756 761.966 142.798L743.178 124.827C738.633 129.578 736.478 135.544 736.478 141.828H762.478ZM762.155 142.597C762.035 142.727 761.869 142.879 761.659 143.024C761.449 143.17 761.24 143.278 761.056 143.351C760.682 143.501 760.596 143.438 761.009 143.438V117.438C754.47 117.438 747.931 119.637 742.989 125.028L762.155 142.597ZM761.009 143.438C761.423 143.438 761.337 143.501 760.963 143.351C760.779 143.278 760.57 143.17 760.36 143.024C760.149 142.879 759.983 142.727 759.864 142.597L779.03 125.028C774.088 119.637 767.549 117.438 761.009 117.438V143.438ZM760.254 143.005C760.17 142.921 759.97 142.676 759.817 142.298C759.669 141.932 759.681 141.724 759.681 141.828H785.681C785.681 135.367 783.354 129.335 778.639 124.62L760.254 143.005ZM759.681 141.828C759.681 141.932 759.669 141.725 759.817 141.358C759.97 140.98 760.17 140.735 760.254 140.651L778.639 159.036C783.354 154.322 785.681 148.289 785.681 141.828H759.681ZM760.053 140.858C760.189 140.716 760.364 140.564 760.572 140.426C760.78 140.288 760.977 140.192 761.137 140.131C761.461 140.007 761.485 140.078 761.009 140.078V166.078C767.377 166.078 773.856 164.041 778.841 158.83L760.053 140.858ZM761.009 140.078C760.534 140.078 760.558 140.007 760.881 140.131C761.042 140.192 761.238 140.288 761.446 140.426C761.655 140.564 761.83 140.716 761.966 140.858L743.178 158.83C748.163 164.041 754.642 166.078 761.009 166.078V140.078ZM761.966 140.858C762.007 140.9 762.08 140.986 762.164 141.116C762.248 141.248 762.322 141.393 762.38 141.542C762.502 141.858 762.478 142.001 762.478 141.828H736.478C736.478 148.112 738.633 154.078 743.178 158.83L761.966 140.858ZM844.878 185.844L857.875 185.548C857.714 178.486 851.943 172.844 844.878 172.844V185.844ZM845.441 210.594L832.444 210.889C832.575 216.655 836.489 221.645 842.057 223.146C847.625 224.647 853.516 222.3 856.528 217.382L845.441 210.594ZM940.362 212.562L928.012 216.62C929.614 221.496 933.935 224.973 939.04 225.495C944.145 226.017 949.08 223.487 951.636 219.036L940.362 212.562ZM962.159 190.766L968.483 202.124C968.512 202.108 968.542 202.091 968.571 202.074L962.159 190.766ZM1042.17 236.469H1055.17C1055.17 236.389 1055.17 236.309 1055.17 236.229L1042.17 236.469ZM1042.17 338V351C1049.35 351 1055.17 345.18 1055.17 338H1042.17ZM1025.3 338H1012.3C1012.3 345.18 1018.12 351 1025.3 351V338ZM1025.3 237.734H1038.3C1038.3 237.704 1038.3 237.675 1038.3 237.645L1025.3 237.734ZM1016.44 207.5L1006.64 216.041C1006.66 216.067 1006.69 216.093 1006.71 216.119L1016.44 207.5ZM988.316 197.656V184.656C988.248 184.656 988.181 184.657 988.114 184.658L988.316 197.656ZM957.659 209.469L966.409 219.083C966.429 219.065 966.449 219.047 966.468 219.029L957.659 209.469ZM943.737 237.312L930.785 236.205C930.753 236.574 930.737 236.943 930.737 237.312H943.737ZM943.737 338V351C950.917 351 956.737 345.18 956.737 338H943.737ZM926.862 338H913.862C913.862 345.18 919.683 351 926.862 351V338ZM926.862 236.469H939.862C939.862 236.438 939.862 236.406 939.862 236.375L926.862 236.469ZM917.581 207.359L908.05 216.2C908.094 216.248 908.139 216.295 908.184 216.342L917.581 207.359ZM862.456 206.797L870.516 216.997C870.541 216.977 870.567 216.956 870.593 216.936L862.456 206.797ZM845.581 233.656L833.154 229.84C832.774 231.077 832.581 232.363 832.581 233.656H845.581ZM845.581 338V351C852.761 351 858.581 345.18 858.581 338H845.581ZM828.706 338H815.706C815.706 345.18 821.527 351 828.706 351V338ZM828.706 185.844V172.844C821.527 172.844 815.706 178.664 815.706 185.844H828.706ZM831.881 186.139L832.444 210.889L858.437 210.298L857.875 185.548L831.881 186.139ZM856.528 217.382C861.11 209.897 866.549 204.716 872.751 201.339L860.318 178.504C849.645 184.315 841.021 192.916 834.354 203.806L856.528 217.382ZM872.751 201.339C879.142 197.86 886.354 196.031 894.659 196.031V170.031C882.339 170.031 870.802 172.796 860.318 178.504L872.751 201.339ZM894.659 196.031C904.949 196.031 912.094 198.144 917.03 201.333C921.798 204.414 925.567 209.178 928.012 216.62L952.713 208.505C948.69 196.26 941.606 186.258 931.14 179.495C920.842 172.841 908.37 170.031 894.659 170.031V196.031ZM951.636 219.036C955.958 211.51 961.555 205.981 968.483 202.124L955.836 179.407C944.576 185.676 935.642 194.677 929.089 206.089L951.636 219.036ZM968.571 202.074C975.612 198.082 983.417 196.031 992.253 196.031V170.031C979.152 170.031 966.894 173.137 955.747 179.457L968.571 202.074ZM992.253 196.031C1006.24 196.031 1014.59 199.794 1019.7 205.265C1025.01 210.941 1028.88 220.65 1029.18 236.708L1055.17 236.229C1054.81 216.663 1050.04 199.653 1038.7 187.516C1027.17 175.175 1010.9 170.031 992.253 170.031V196.031ZM1029.17 236.469V338H1055.17V236.469H1029.17ZM1042.17 325H1025.3V351H1042.17V325ZM1038.3 338V237.734H1012.3V338H1038.3ZM1038.3 237.645C1038.2 222.562 1034.95 208.796 1026.17 198.881L1006.71 216.119C1009.55 219.329 1012.22 225.719 1012.3 237.824L1038.3 237.645ZM1026.24 198.959C1017.04 188.397 1003.22 184.656 988.316 184.656V210.656C999.477 210.656 1004.41 213.478 1006.64 216.041L1026.24 198.959ZM988.114 184.658C973.056 184.891 959.708 189.905 948.851 199.908L966.468 219.029C972.299 213.657 979.387 210.796 988.517 210.655L988.114 184.658ZM948.909 199.854C938.209 209.593 932.009 221.884 930.785 236.205L956.69 238.42C957.341 230.803 960.422 224.532 966.409 219.083L948.909 199.854ZM930.737 237.312V338H956.737V237.312H930.737ZM943.737 325H926.862V351H943.737V325ZM939.862 338V236.469H913.862V338H939.862ZM939.862 236.375C939.756 221.59 936.251 208.077 926.979 198.377L908.184 216.342C911.099 219.392 913.782 225.285 913.863 236.562L939.862 236.375ZM927.112 198.519C917.759 188.435 904.353 184.656 889.737 184.656V210.656C900.247 210.656 905.403 213.346 908.05 216.2L927.112 198.519ZM889.737 184.656C876.463 184.656 864.429 188.545 854.32 196.658L870.593 216.936C875.671 212.861 881.824 210.656 889.737 210.656V184.656ZM854.397 196.597C844.211 204.644 837.363 216.132 833.154 229.84L858.008 237.472C861.112 227.368 865.514 220.949 870.516 216.997L854.397 196.597ZM832.581 233.656V338H858.581V233.656H832.581ZM845.581 325H828.706V351H845.581V325ZM841.706 338V185.844H815.706V338H841.706ZM828.706 198.844H844.878V172.844H828.706V198.844ZM1123.09 331.25L1116.3 342.335C1116.31 342.344 1116.33 342.353 1116.34 342.362L1123.09 331.25ZM1098.76 304.672L1087.17 310.562C1087.18 310.574 1087.19 310.587 1087.19 310.6L1098.76 304.672ZM1098.48 220.719L1086.8 215.017C1086.79 215.043 1086.77 215.068 1086.76 215.093L1098.48 220.719ZM1122.25 193.156L1129.39 204.019C1129.41 204.004 1129.43 203.988 1129.46 203.973L1122.25 193.156ZM1199.03 202.016L1189.13 210.446C1189.15 210.472 1189.18 210.498 1189.2 210.524L1199.03 202.016ZM1215.34 263.047V276.047C1222.52 276.047 1228.34 270.227 1228.34 263.047H1215.34ZM1106.78 263.047V250.047C1099.6 250.047 1093.78 255.867 1093.78 263.047H1106.78ZM1121.54 309.453L1111.66 317.894C1111.68 317.922 1111.71 317.951 1111.73 317.979L1121.54 309.453ZM1182.72 321.688L1177.16 309.936C1177.14 309.945 1177.12 309.955 1177.1 309.965L1182.72 321.688ZM1201.56 305.938L1209.43 295.587C1203.76 291.28 1195.68 292.332 1191.3 297.947L1201.56 305.938ZM1212.11 313.953L1222.8 321.344C1226.75 315.625 1225.51 307.809 1219.97 303.603L1212.11 313.953ZM1123.09 211.297L1113.62 202.396C1113.6 202.413 1113.58 202.43 1113.57 202.447L1123.09 211.297ZM1107.34 248.703L1094.43 247.157C1093.99 250.848 1095.15 254.551 1097.62 257.332C1100.08 260.112 1103.62 261.703 1107.34 261.703V248.703ZM1198.61 248.703V261.703C1205.79 261.703 1211.61 255.883 1211.61 248.703H1198.61ZM1198.61 246.875H1211.61C1211.61 246.736 1211.6 246.597 1211.6 246.459L1198.61 246.875ZM1158.25 327.812C1147.56 327.812 1138.19 325.211 1129.84 320.138L1116.34 342.362C1128.99 350.039 1143.06 353.812 1158.25 353.812V327.812ZM1129.88 320.165C1121.6 315.094 1115.11 308.061 1110.33 298.744L1087.19 310.6C1094.04 323.97 1103.76 334.656 1116.3 342.335L1129.88 320.165ZM1110.35 298.782C1105.56 289.352 1103.04 278.606 1103.04 266.281H1077.04C1077.04 282.269 1080.34 297.117 1087.17 310.562L1110.35 298.782ZM1103.04 266.281V260.234H1077.04V266.281H1103.04ZM1103.04 260.234C1103.04 247.312 1105.52 236.099 1110.2 226.344L1086.76 215.093C1080.19 228.776 1077.04 243.907 1077.04 260.234H1103.04ZM1110.16 226.42C1114.94 216.633 1121.36 209.296 1129.39 204.019L1115.11 182.293C1102.88 190.329 1093.46 201.367 1086.8 215.017L1110.16 226.42ZM1129.46 203.973C1137.52 198.601 1145.99 196.031 1155.15 196.031V170.031C1140.69 170.031 1127.23 174.211 1115.04 182.34L1129.46 203.973ZM1155.15 196.031C1170.29 196.031 1181.11 201.032 1189.13 210.446L1208.92 193.586C1195.38 177.687 1176.96 170.031 1155.15 170.031V196.031ZM1189.2 210.524C1197.46 220.064 1202.34 233.907 1202.34 253.625H1228.34C1228.34 229.656 1222.35 209.092 1208.86 193.507L1189.2 210.524ZM1202.34 253.625V263.047H1228.34V253.625H1202.34ZM1215.34 250.047H1106.78V276.047H1215.34V250.047ZM1093.78 263.047V266.281H1119.78V263.047H1093.78ZM1093.78 266.281C1093.78 286.172 1099.53 303.686 1111.66 317.894L1131.43 301.013C1123.87 292.158 1119.78 280.89 1119.78 266.281H1093.78ZM1111.73 317.979C1124.11 332.226 1140.14 339.609 1158.95 339.609V313.609C1147.76 313.609 1138.85 309.556 1131.36 300.927L1111.73 317.979ZM1158.95 339.609C1169.54 339.609 1179.44 337.674 1188.34 333.41L1177.1 309.965C1172.3 312.263 1166.36 313.609 1158.95 313.609V339.609ZM1188.27 333.439C1197.37 329.137 1205.18 322.444 1211.81 313.928L1191.3 297.947C1186.69 303.868 1181.94 307.676 1177.16 309.936L1188.27 333.439ZM1193.69 316.288L1204.24 324.303L1219.97 303.603L1209.43 295.587L1193.69 316.288ZM1201.41 306.562C1191.69 320.633 1177.92 327.812 1158.25 327.812V353.812C1185.64 353.812 1207.78 343.085 1222.8 321.344L1201.41 306.562ZM1155.15 184.375C1138.88 184.375 1124.77 190.517 1113.62 202.396L1132.57 220.198C1138.84 213.514 1146.11 210.375 1155.15 210.375V184.375ZM1113.57 202.447C1102.65 214.191 1096.55 229.446 1094.43 247.157L1120.25 250.249C1121.88 236.648 1126.28 226.965 1132.61 220.146L1113.57 202.447ZM1107.34 261.703H1198.61V235.703H1107.34V261.703ZM1211.61 248.703V246.875H1185.61V248.703H1211.61ZM1211.6 246.459C1211.06 229.515 1206.14 214.574 1195.96 202.696L1176.22 219.617C1181.79 226.114 1185.22 234.985 1185.61 247.291L1211.6 246.459ZM1195.96 202.696C1185.47 190.455 1171.47 184.375 1155.15 184.375V210.375C1164.34 210.375 1170.96 213.482 1176.22 219.617L1195.96 202.696ZM1369.24 320L1379.61 327.845C1379.62 327.834 1379.62 327.822 1379.63 327.811L1369.24 320ZM1278.82 317.188L1289.52 309.801C1286.33 305.186 1280.54 303.135 1275.16 304.713C1269.78 306.291 1266.02 311.143 1265.83 316.749L1278.82 317.188ZM1278.12 338V351C1285.12 351 1290.87 345.444 1291.11 338.439L1278.12 338ZM1262.37 338H1249.37C1249.37 345.18 1255.19 351 1262.37 351V338ZM1262.37 122V109C1255.19 109 1249.37 114.82 1249.37 122H1262.37ZM1279.1 122H1292.1C1292.1 114.82 1286.28 109 1279.1 109V122ZM1279.1 207.922H1266.1C1266.1 213.689 1269.9 218.766 1275.43 220.393C1280.96 222.021 1286.91 219.809 1290.03 214.961L1279.1 207.922ZM1369.24 203.703L1358.87 211.537C1358.89 211.563 1358.91 211.59 1358.93 211.616L1369.24 203.703ZM1356.44 214.109L1345.84 221.631C1345.85 221.645 1345.86 221.66 1345.87 221.674L1356.44 214.109ZM1296.12 205.672L1303.57 216.322C1303.6 216.301 1303.63 216.28 1303.66 216.259L1296.12 205.672ZM1279.1 228.875L1266.93 224.298C1266.38 225.761 1266.1 227.312 1266.1 228.875H1279.1ZM1279.1 297.5H1266.1C1266.1 299.307 1266.48 301.094 1267.21 302.747L1279.1 297.5ZM1356.3 309.734L1345.74 302.153C1345.73 302.173 1345.71 302.193 1345.7 302.213L1356.3 309.734ZM1371.99 263.469C1371.99 285.364 1367.14 301.155 1358.85 312.189L1379.63 327.811C1392.34 310.908 1397.99 289.011 1397.99 263.469H1371.99ZM1358.87 312.155C1350.88 322.714 1340.65 327.812 1326.91 327.812V353.812C1348.62 353.812 1366.6 345.036 1379.61 327.845L1358.87 312.155ZM1326.91 327.812C1309.46 327.812 1297.68 321.618 1289.52 309.801L1268.12 324.574C1281.71 344.257 1301.99 353.812 1326.91 353.812V327.812ZM1265.83 316.749L1265.12 337.561L1291.11 338.439L1291.81 317.626L1265.83 316.749ZM1278.12 325H1262.37V351H1278.12V325ZM1275.37 338V122H1249.37V338H1275.37ZM1262.37 135H1279.1V109H1262.37V135ZM1266.1 122V207.922H1292.1V122H1266.1ZM1290.03 214.961C1298.15 202.359 1309.71 196.031 1326.63 196.031V170.031C1301.55 170.031 1281.43 180.297 1268.17 200.883L1290.03 214.961ZM1326.63 196.031C1340.76 196.031 1351.04 201.167 1358.87 211.537L1379.62 195.869C1366.63 178.677 1348.51 170.031 1326.63 170.031V196.031ZM1358.93 211.616C1367.09 222.255 1371.99 238.164 1371.99 260.938H1397.99C1397.99 234.773 1392.39 212.526 1379.56 195.791L1358.93 211.616ZM1371.99 260.938V263.469H1397.99V260.938H1371.99ZM1381.12 260.516C1381.12 239.023 1376.99 220.48 1367.02 206.545L1345.87 221.674C1351.46 229.489 1355.12 241.883 1355.12 260.516H1381.12ZM1367.05 206.588C1356.68 191.974 1341.65 184.656 1323.54 184.656V210.656C1333.74 210.656 1340.64 214.307 1345.84 221.631L1367.05 206.588ZM1323.54 184.656C1310.53 184.656 1298.63 187.916 1288.57 195.084L1303.66 216.259C1308.6 212.74 1314.98 210.656 1323.54 210.656V184.656ZM1288.66 195.022C1278.63 202.045 1271.52 212.108 1266.93 224.298L1291.27 233.452C1294.37 225.205 1298.6 219.799 1303.57 216.322L1288.66 195.022ZM1266.1 228.875V297.5H1292.1V228.875H1266.1ZM1267.21 302.747C1272.27 314.216 1279.62 323.565 1289.59 329.958C1299.53 336.338 1311.16 339.188 1323.82 339.188V313.188C1315.1 313.188 1308.59 311.256 1303.63 308.074C1298.69 304.904 1294.37 299.909 1290.99 292.253L1267.21 302.747ZM1323.82 339.188C1341.75 339.188 1356.6 331.789 1366.91 317.256L1345.7 302.213C1340.45 309.618 1333.64 313.188 1323.82 313.188V339.188ZM1366.86 317.316C1377.03 303.15 1381.12 283.538 1381.12 260.516H1355.12C1355.12 281.18 1351.32 294.382 1345.74 302.153L1366.86 317.316ZM1435.81 220.156L1424.13 214.455C1424.12 214.48 1424.1 214.505 1424.09 214.531L1435.81 220.156ZM1459.86 192.875L1466.77 203.888C1466.78 203.882 1466.79 203.877 1466.79 203.871L1459.86 192.875ZM1544.38 204.406L1534.62 213.003C1534.63 213.014 1534.64 213.024 1534.65 213.035L1544.38 204.406ZM1554.64 304.109L1542.94 298.445C1542.93 298.458 1542.93 298.471 1542.92 298.484L1554.64 304.109ZM1446.22 319.578L1436.47 328.175C1436.49 328.198 1436.51 328.22 1436.53 328.243L1446.22 319.578ZM1458.31 309.172L1448.16 317.293C1448.18 317.323 1448.21 317.352 1448.23 317.382L1458.31 309.172ZM1532.28 309.172L1522.17 301.002L1522.16 301.011L1532.28 309.172ZM1521.88 205.391L1514.52 216.107C1514.55 216.127 1514.57 216.147 1514.6 216.167L1521.88 205.391ZM1458.45 215.094L1468.56 223.264C1468.58 223.251 1468.59 223.238 1468.6 223.225L1458.45 215.094ZM1440.38 259.672C1440.38 246.749 1442.85 235.537 1447.53 225.782L1424.09 214.531C1417.52 228.213 1414.38 243.345 1414.38 259.672H1440.38ZM1447.5 225.858C1452.23 216.159 1458.66 208.974 1466.77 203.888L1452.95 181.862C1440.44 189.713 1430.83 200.716 1424.13 214.455L1447.5 225.858ZM1466.79 203.871C1474.98 198.706 1484.31 196.031 1495.16 196.031V170.031C1479.75 170.031 1465.55 173.919 1452.92 181.879L1466.79 203.871ZM1495.16 196.031C1511.95 196.031 1524.71 201.755 1534.62 213.003L1554.13 195.809C1538.92 178.558 1518.86 170.031 1495.16 170.031V196.031ZM1534.65 213.035C1544.63 224.282 1550.22 239.751 1550.22 260.797H1576.22C1576.22 234.968 1569.24 212.843 1554.1 195.778L1534.65 213.035ZM1550.22 260.797V264.312H1576.22V260.797H1550.22ZM1550.22 264.312C1550.22 277.309 1547.7 288.602 1542.94 298.445L1566.34 309.774C1573.01 295.991 1576.22 280.753 1576.22 264.312H1550.22ZM1542.92 298.484C1538.29 308.131 1531.94 315.219 1523.9 320.192L1537.57 342.308C1550.15 334.531 1559.74 323.525 1566.36 309.735L1542.92 298.484ZM1523.9 320.192C1515.82 325.184 1506.47 327.812 1495.44 327.812V353.812C1510.85 353.812 1525.02 350.066 1537.57 342.308L1523.9 320.192ZM1495.44 327.812C1478.72 327.812 1465.93 322.125 1455.91 310.914L1436.53 328.243C1451.82 345.344 1471.84 353.812 1495.44 353.812V327.812ZM1455.97 310.981C1445.96 299.626 1440.38 284.089 1440.38 263.047H1414.38C1414.38 288.879 1421.35 311.03 1436.47 328.175L1455.97 310.981ZM1440.38 263.047V259.672H1414.38V263.047H1440.38ZM1431.25 264.312C1431.25 284.805 1436.58 302.81 1448.16 317.293L1468.46 301.051C1461.3 292.096 1457.25 280.195 1457.25 264.312H1431.25ZM1448.23 317.382C1460.23 332.105 1476.33 339.609 1495.44 339.609V313.609C1483.98 313.609 1475.34 309.489 1468.39 300.962L1448.23 317.382ZM1495.44 339.609C1514.48 339.609 1530.51 332.078 1542.4 317.333L1522.16 301.011C1515.3 309.516 1506.77 313.609 1495.44 313.609V339.609ZM1542.39 317.342C1554.19 302.746 1559.48 284.188 1559.48 262.906H1533.48C1533.48 279.874 1529.31 292.16 1522.17 301.002L1542.39 317.342ZM1559.48 262.906V259.672H1533.48V262.906H1559.48ZM1559.48 259.672C1559.48 246.403 1557.01 233.932 1551.89 222.449L1528.15 233.051C1531.64 240.88 1533.48 249.691 1533.48 259.672H1559.48ZM1551.89 222.449C1546.71 210.862 1539.19 201.39 1529.15 194.614L1514.6 216.167C1520.12 219.891 1524.7 225.325 1528.15 233.051L1551.89 222.449ZM1529.23 194.674C1519.15 187.748 1507.64 184.375 1495.16 184.375V210.375C1502.73 210.375 1509.04 212.346 1514.52 216.107L1529.23 194.674ZM1495.16 184.375C1476.17 184.375 1460.22 192.106 1448.31 206.963L1468.6 223.225C1475.62 214.457 1484.14 210.375 1495.16 210.375V184.375ZM1448.34 206.923C1436.56 221.508 1431.25 240.013 1431.25 261.219H1457.25C1457.25 244.362 1461.41 232.117 1468.56 223.264L1448.34 206.923ZM1431.25 261.219V264.312H1457.25V261.219H1431.25ZM1657.21 247.578L1646.39 254.778C1648.8 258.401 1652.86 260.578 1657.21 260.578C1661.56 260.578 1665.63 258.401 1668.04 254.778L1657.21 247.578ZM1698.28 185.844V172.844C1693.92 172.844 1689.86 175.021 1687.45 178.644L1698.28 185.844ZM1718.24 185.844L1728.94 193.235C1731.69 189.259 1732 184.086 1729.76 179.806C1727.51 175.525 1723.08 172.844 1718.24 172.844V185.844ZM1666.63 260.516L1655.94 253.124C1652.86 257.583 1652.87 263.485 1655.96 267.935L1666.63 260.516ZM1720.49 338V351C1725.33 351 1729.77 348.312 1732.01 344.023C1734.26 339.734 1733.93 334.554 1731.17 330.58L1720.49 338ZM1700.67 338L1689.88 345.255C1692.29 348.846 1696.34 351 1700.67 351V338ZM1657.35 273.594L1668.14 266.339C1665.73 262.748 1661.68 260.594 1657.35 260.594C1653.03 260.594 1648.98 262.748 1646.57 266.339L1657.35 273.594ZM1614.04 338V351C1618.37 351 1622.41 348.846 1624.83 345.255L1614.04 338ZM1594.21 338L1583.53 330.593C1580.77 334.568 1580.45 339.744 1582.7 344.03C1584.94 348.315 1589.38 351 1594.21 351V338ZM1647.93 260.516L1658.61 267.922C1661.7 263.473 1661.7 257.578 1658.63 253.124L1647.93 260.516ZM1596.32 185.844V172.844C1591.49 172.844 1587.05 175.525 1584.81 179.806C1582.56 184.086 1582.88 189.259 1585.63 193.235L1596.32 185.844ZM1616.15 185.844L1626.97 178.644C1624.56 175.021 1620.5 172.844 1616.15 172.844V185.844ZM1668.04 254.778L1709.1 193.043L1687.45 178.644L1646.39 240.378L1668.04 254.778ZM1698.28 198.844H1718.24V172.844H1698.28V198.844ZM1707.55 178.452L1655.94 253.124L1677.33 267.907L1728.94 193.235L1707.55 178.452ZM1655.96 267.935L1709.82 345.42L1731.17 330.58L1677.31 253.096L1655.96 267.935ZM1720.49 325H1700.67V351H1720.49V325ZM1711.45 330.745L1668.14 266.339L1646.57 280.848L1689.88 345.255L1711.45 330.745ZM1646.57 266.339L1603.25 330.745L1624.83 345.255L1668.14 280.848L1646.57 266.339ZM1614.04 325H1594.21V351H1614.04V325ZM1604.9 345.407L1658.61 267.922L1637.25 253.109L1583.53 330.593L1604.9 345.407ZM1658.63 253.124L1607.02 178.452L1585.63 193.235L1637.24 267.907L1658.63 253.124ZM1596.32 198.844H1616.15V172.844H1596.32V198.844ZM1605.33 193.043L1646.39 254.778L1668.04 240.378L1626.97 178.644L1605.33 193.043Z" fill="black"/>
<path d="M453.117 58.1083L417.208 14.7083C410.233 5.925 399.642 0.5 387.5 0.5H77.5C65.3583 0.5 54.7667 5.925 47.5333 14.7083L11.8833 58.1083C4.39167 66.8917 0 78.5167 0 90.9167V413.833C0 442.25 23.25 465.5 51.6667 465.5H413.333C441.75 465.5 465 442.25 465 413.833V90.9167C465 78.5167 460.608 66.8917 453.117 58.1083ZM83.7 52.1667H381.3L402.225 77.225H63.0333L83.7 52.1667ZM51.6667 413.833V129.667H413.333V413.833H51.6667Z" fill="black"/>
<path d="M208.75 223V292.75L263.388 326.463L272.688 312.513L226.188 284.613V223H208.75Z" fill="black"/>
<path d="M300.82 269.5C301.401 273.336 301.75 277.173 301.75 281.125C301.75 326.463 265.712 362.5 220.375 362.5C175.037 362.5 139 326.463 139 281.125C139 235.788 175.037 199.75 220.375 199.75C228.512 199.75 236.301 200.913 243.625 203.121V179.174C236.185 177.43 228.396 176.5 220.375 176.5C162.25 176.5 115.75 223 115.75 281.125C115.75 339.25 162.25 385.75 220.375 385.75C278.5 385.75 325 339.25 325 281.125C325 277.173 324.767 273.336 324.302 269.5H300.82Z" fill="black"/>
<path d="M325 188.125V153.25H301.75V188.125H266.875V211.375H301.75V246.25H325V211.375H359.875V188.125H325Z" fill="black"/>
</svg>
